<svg preserveAspectRatio="none" width="100%" height="100%" overflow="visible" style="display: block;" viewBox="0 0 25 25" fill="none" xmlns="http://www.w3.org/2000/svg">
<path d="M12.5 0C5.59375 0 0 5.73438 0 12.8125C0 18.4766 3.58203 23.2617 8.54687 24.9609C9.17187 25.0781 9.39453 24.6875 9.39453 24.3516C9.39453 24.0508 9.38281 23.0273 9.37891 21.9141C5.90625 22.6758 5.17187 20.3516 5.17187 20.3516C4.60547 18.8789 3.78906 18.4883 3.78906 18.4883C2.66016 17.7109 3.87109 17.7266 3.87109 17.7266C5.11719 17.8125 5.77344 19.0234 5.77344 19.0234C6.88281 20.9219 8.70703 20.3711 9.41797 20.0469C9.53125 19.1875 9.86328 18.6367 10.2305 18.3203C7.45312 18 4.53125 16.9062 4.53125 12.0391C4.53125 10.6523 5.01562 9.51562 5.79687 8.62109C5.66406 8.30078 5.24219 7.00781 5.92187 5.24219C5.92187 5.24219 6.96875 4.90234 9.36328 6.5625C10.3516 6.28125 11.4297 6.14062 12.5 6.13281C13.5703 6.14062 14.6484 6.28125 15.6406 6.5625C18.0312 4.90234 19.0742 5.24219 19.0742 5.24219C19.7578 7.00781 19.3359 8.30078 19.2031 8.62109C19.9883 9.51562 20.4687 10.6523 20.4687 12.0391C20.4687 16.918 17.543 17.9961 14.7578 18.3086C15.2187 18.707 15.6328 19.4922 15.6328 20.6836C15.6328 22.3828 15.6172 23.7539 15.6172 24.3516C15.6172 24.6914 15.8359 25.0859 16.4687 24.9609C21.4219 23.2578 25 18.4727 25 12.8125C25 5.73438 19.4062 0 12.5 0Z" fill="var(--fill-0, white)"/>
</svg>
