<svg preserveAspectRatio="none" width="100%" height="100%" overflow="visible" style="display: block;" viewBox="0 0 24.2157 24.1949" fill="none" xmlns="http://www.w3.org/2000/svg">
<path id="Icon" d="M10.0245 13.1391C10.4719 13.7372 11.0426 14.232 11.698 14.5901C12.3534 14.9482 13.0782 15.1611 13.8231 15.2145C14.5681 15.2678 15.3158 15.1603 16.0155 14.8993C16.7153 14.6383 17.3507 14.2298 17.8787 13.7016L21.0037 10.5766C21.9524 9.59432 22.4774 8.27868 22.4656 6.91308C22.4537 5.54747 21.9059 4.24115 20.9403 3.27549C19.9746 2.30982 18.6683 1.76206 17.3027 1.7502C15.9371 1.73833 14.6214 2.2633 13.6391 3.21204L11.8475 4.99329M14.1912 11.0558C13.7439 10.4577 13.1731 9.96289 12.5177 9.60481C11.8623 9.24673 11.1376 9.03379 10.3926 8.98044C9.64767 8.92709 8.89997 9.03457 8.20022 9.2956C7.50047 9.55663 6.86505 9.96509 6.33704 10.4933L3.21204 13.6183C2.2633 14.6006 1.73833 15.9162 1.7502 17.2818C1.76206 18.6474 2.30982 19.9538 3.27549 20.9194C4.24115 21.8851 5.54747 22.4329 6.91308 22.4447C8.27868 22.4566 9.59432 21.9316 10.5766 20.9829L12.3579 19.2016" stroke="var(--stroke-0, white)" stroke-opacity="0.96" stroke-width="3.5" stroke-linecap="round" stroke-linejoin="round"/>
</svg>
