<svg preserveAspectRatio="none" width="100%" height="100%" overflow="visible" style="display: block;" viewBox="0 0 50 50" fill="none" xmlns="http://www.w3.org/2000/svg">
<g id="message-tick">
<g id="Vector" opacity="0">
</g>
<path id="Vector_2" d="M10.4167 28.125C5.8125 28.125 2.08333 31.8542 2.08333 36.4583C2.08333 38.0208 2.52083 39.5 3.29167 40.75C4.72917 43.1667 7.375 44.7917 10.4167 44.7917C13.4583 44.7917 16.1042 43.1667 17.5417 40.75C18.3125 39.5 18.75 38.0208 18.75 36.4583C18.75 31.8542 15.0208 28.125 10.4167 28.125ZM14.5208 35.7708L10.0833 39.875C9.79167 40.1458 9.39583 40.2917 9.02083 40.2917C8.625 40.2917 8.22917 40.1458 7.91667 39.8333L5.85417 37.7708C5.25 37.1667 5.25 36.1667 5.85417 35.5625C6.45833 34.9583 7.45833 34.9583 8.0625 35.5625L9.0625 36.5625L12.3958 33.4792C13.0208 32.8958 14.0208 32.9375 14.6042 33.5625C15.1875 34.1875 15.1458 35.1875 14.5208 35.7708Z" fill="var(--fill-0, white)"/>
<path id="Vector_3" d="M35.9375 5.0625H16.1458C10.2083 5.0625 6.25 9.02083 6.25 14.9583V24.25C6.25 24.9792 7 25.5 7.70833 25.3125C8.58333 25.1042 9.47917 25 10.4167 25C16.375 25 21.2917 29.8333 21.8333 35.6875C21.875 36.2708 22.3542 36.7292 22.9167 36.7292H24.0625L32.875 42.6042C34.1667 43.4792 35.9375 42.5208 35.9375 40.9375V36.7292C38.8958 36.7292 41.375 35.7292 43.1042 34.0208C44.8333 32.2708 45.8333 29.7917 45.8333 26.8333V14.9583C45.8333 9.02083 41.875 5.0625 35.9375 5.0625ZM32.9792 22.5208H19.1042C18.2917 22.5208 17.625 21.8542 17.625 21.0417C17.625 20.2083 18.2917 19.5417 19.1042 19.5417H32.9792C33.7917 19.5417 34.4583 20.2083 34.4583 21.0417C34.4583 21.8542 33.7917 22.5208 32.9792 22.5208Z" fill="var(--fill-0, white)"/>
</g>
</svg>
