<svg preserveAspectRatio="none" width="100%" height="100%" overflow="visible" style="display: block;" viewBox="0 0 22.3127 23.9029" fill="none" xmlns="http://www.w3.org/2000/svg">
<path id="Icon" d="M8.2919 19.7779C3.08357 21.3404 3.08357 17.1737 1.00024 16.6529M15.5836 22.9029V18.8717C15.6226 18.375 15.5555 17.8756 15.3867 17.4069C15.2179 16.9381 14.9512 16.5106 14.6044 16.1529C17.8752 15.7883 21.3127 14.5487 21.3127 8.86124C21.3125 7.4069 20.753 6.00832 19.7502 4.95499C20.2251 3.6826 20.1915 2.27619 19.6565 1.02791C19.6565 1.02791 18.4273 0.663326 15.5836 2.56958C13.1961 1.92252 10.6794 1.92252 8.2919 2.56958C5.44815 0.663326 4.21899 1.02791 4.21899 1.02791C3.68396 2.27619 3.65039 3.6826 4.12524 4.95499C3.11495 6.01614 2.55495 7.42735 2.56274 8.89249C2.56274 14.5383 6.00024 15.7779 9.27107 16.1842C8.92836 16.5383 8.66405 16.9606 8.49535 17.4237C8.32665 17.8867 8.25733 18.3801 8.2919 18.8717V22.9029" stroke="var(--stroke-0, white)" stroke-opacity="0.96" stroke-width="2" stroke-linecap="round" stroke-linejoin="round"/>
</svg>
