<svg preserveAspectRatio="none" width="100%" height="100%" overflow="visible" style="display: block;" viewBox="0 0 35 35" fill="none" xmlns="http://www.w3.org/2000/svg">
<g id="3">
<path id="Vector" d="M26.0171 26.9345C28.9657 24.1825 30.2761 19.596 29.4899 15.206H17.7613V20.0546H24.4446C24.1825 21.6272 23.2651 22.9376 21.9547 23.7894L26.0171 26.9345Z" fill="var(--fill-0, #4285F4)"/>
<path id="Vector_2" d="M6.62245 23.0687C6.72982 23.28 6.84302 23.4882 6.96206 23.6932C7.08119 23.8983 7.20597 24.0997 7.3364 24.2977C7.46692 24.4955 7.60282 24.6897 7.74427 24.8799C7.88573 25.0702 8.03239 25.2562 8.18442 25.4383C8.33636 25.6202 8.49331 25.7977 8.65537 25.9708C8.81733 26.1439 8.98413 26.3123 9.15567 26.476C9.3272 26.6396 9.50321 26.7983 9.68368 26.952C9.86414 27.1057 10.0488 27.2542 10.2378 27.3974C10.4266 27.5407 10.6194 27.6785 10.8161 27.8109C11.0128 27.9432 11.213 28.0699 11.4169 28.191C11.6207 28.312 11.8278 28.4272 12.0382 28.5366C12.2485 28.6459 12.4618 28.7492 12.678 28.8465C12.8942 28.9437 13.1129 29.0349 13.3343 29.1197C13.5556 29.2047 13.7792 29.2833 14.005 29.3555C14.2308 29.4278 14.4584 29.4937 14.6879 29.553C14.9175 29.6125 15.1484 29.6653 15.3809 29.7117C15.6134 29.758 15.847 29.7978 16.0818 29.8309C16.3165 29.864 16.5521 29.8906 16.7883 29.9103C17.0246 29.9301 17.2612 29.9433 17.4982 29.9497C17.7351 29.9562 17.9721 29.9559 18.2091 29.949C18.4461 29.9421 18.6826 29.9284 18.9188 29.9081C19.155 29.8877 19.3904 29.8608 19.6251 29.8271C19.8598 29.7935 20.0934 29.7532 20.3258 29.7063C20.5582 29.6595 20.7891 29.6062 21.0184 29.5463C21.2478 29.4864 21.4753 29.4201 21.701 29.3473C21.9266 29.2746 22.15 29.1955 22.3712 29.1101C22.5923 29.0247 22.8109 28.9332 23.0269 28.8354C23.2429 28.7377 23.4559 28.6339 23.666 28.5241C23.8762 28.4144 24.083 28.2987 24.2866 28.1772C24.4901 28.0557 24.6901 27.9285 24.8865 27.7958C25.0829 27.663 25.2754 27.5248 25.464 27.3811C25.6526 27.2375 25.837 27.0885 26.0171 26.9345L21.9547 23.7894C18.4821 26.0827 12.7161 25.2309 10.7504 19.858L6.62245 23.0687Z" fill="var(--fill-0, #34A853)"/>
<path id="Vector_3" d="M10.7504 19.858C10.2262 18.22 10.2262 16.713 10.7504 15.0749L6.62246 11.8643C5.11545 14.8784 4.65681 19.1373 6.62246 23.0687L10.7504 19.858Z" fill="var(--fill-0, #FBBC02)"/>
<path id="Vector_4" d="M10.7504 15.0749C12.1919 10.5539 18.351 7.93297 22.4789 11.7987L26.0826 8.26055C20.9719 3.34642 11.0125 3.54293 6.62245 11.8643L10.7504 15.0749Z" fill="var(--fill-0, #EA4335)"/>
</g>
</svg>
